<mxfile modified="2022-10-26T06:12:26.155Z" host="Electron" agent="5.0 (Windows NT 10.0; Win64; x64) AppleWebKit/537.36 (KHTML, like Gecko) draw.io/20.3.0 Chrome/104.0.5112.114 Electron/20.1.3 Safari/537.36" etag="2ForJiPCYbFmgrTc63M4" compressed="false" version="20.3.0" type="device">
  <diagram id="5vKPIbCIWK__K9a_hM_l" name="Error Record Management">
    <mxGraphModel dx="447" dy="314" grid="1" gridSize="10" guides="1" tooltips="1" connect="1" arrows="1" fold="1" page="1" pageScale="1" pageWidth="827" pageHeight="1169" math="0" shadow="0">
      <root>
        <mxCell id="6zsalb_4Q6Wy_RO658KX-0" />
        <mxCell id="aUDsEq78Ny2xMxmlCQFK-10" value="Diagram/Use Case" style="" parent="6zsalb_4Q6Wy_RO658KX-0" />
        <mxCell id="GkLt6nn7DvjHkwB9jJwZ-0" style="edgeStyle=orthogonalEdgeStyle;rounded=0;orthogonalLoop=1;jettySize=auto;html=1;endArrow=block;endFill=0;" edge="1" parent="aUDsEq78Ny2xMxmlCQFK-10" source="GkLt6nn7DvjHkwB9jJwZ-1" target="GkLt6nn7DvjHkwB9jJwZ-2">
          <mxGeometry relative="1" as="geometry" />
        </mxCell>
        <mxCell id="GkLt6nn7DvjHkwB9jJwZ-1" value="&amp;lt;&amp;lt;actor&amp;gt;&amp;gt;&lt;br&gt;&lt;b&gt;Daemon&lt;br&gt;&lt;/b&gt;" style="text;html=1;align=center;verticalAlign=middle;dashed=0;fillColor=#ffffff;strokeColor=#000000;" vertex="1" parent="aUDsEq78Ny2xMxmlCQFK-10">
          <mxGeometry x="240" y="160" width="80" height="40" as="geometry" />
        </mxCell>
        <mxCell id="GkLt6nn7DvjHkwB9jJwZ-2" value="&amp;lt;&amp;lt;actor&amp;gt;&amp;gt;&lt;br&gt;&lt;b&gt;Authorised&lt;br&gt;User&lt;br&gt;&lt;/b&gt;" style="text;html=1;align=center;verticalAlign=middle;dashed=0;fillColor=#ffffff;strokeColor=#000000;" vertex="1" parent="aUDsEq78Ny2xMxmlCQFK-10">
          <mxGeometry x="120" y="220" width="80" height="40" as="geometry" />
        </mxCell>
        <mxCell id="GkLt6nn7DvjHkwB9jJwZ-3" value="" style="fontStyle=1;align=left;verticalAlign=top;childLayout=stackLayout;horizontal=1;horizontalStack=0;resizeParent=1;resizeParentMax=0;resizeLast=0;marginBottom=0;" vertex="1" parent="aUDsEq78Ny2xMxmlCQFK-10">
          <mxGeometry x="360" y="160" width="120" height="40" as="geometry" />
        </mxCell>
        <mxCell id="GkLt6nn7DvjHkwB9jJwZ-4" value="Record Error" style="html=1;align=left;spacingLeft=4;verticalAlign=middle;strokeColor=none;fillColor=none;fontStyle=1" vertex="1" parent="GkLt6nn7DvjHkwB9jJwZ-3">
          <mxGeometry width="120" height="20" as="geometry" />
        </mxCell>
        <mxCell id="GkLt6nn7DvjHkwB9jJwZ-5" value="" style="shape=ellipse;" vertex="1" parent="GkLt6nn7DvjHkwB9jJwZ-4">
          <mxGeometry x="1" width="20" height="10" relative="1" as="geometry">
            <mxPoint x="-25" y="5" as="offset" />
          </mxGeometry>
        </mxCell>
        <mxCell id="GkLt6nn7DvjHkwB9jJwZ-6" value="" style="line;strokeWidth=1;fillColor=none;align=left;verticalAlign=middle;spacingTop=-1;spacingLeft=3;spacingRight=3;rotatable=0;labelPosition=right;points=[];portConstraint=eastwest;" vertex="1" parent="GkLt6nn7DvjHkwB9jJwZ-3">
          <mxGeometry y="20" width="120" height="8" as="geometry" />
        </mxCell>
        <mxCell id="GkLt6nn7DvjHkwB9jJwZ-7" value="- - -" style="html=1;align=left;spacingLeft=4;verticalAlign=top;strokeColor=none;fillColor=none;fontSize=8;spacing=-2;" vertex="1" parent="GkLt6nn7DvjHkwB9jJwZ-3">
          <mxGeometry y="28" width="120" height="12" as="geometry" />
        </mxCell>
        <mxCell id="GkLt6nn7DvjHkwB9jJwZ-8" value="" style="endArrow=open;endFill=1;endSize=12;html=1;strokeColor=#000000;fontSize=10;entryX=0;entryY=0.5;entryDx=0;entryDy=0;" edge="1" parent="aUDsEq78Ny2xMxmlCQFK-10">
          <mxGeometry width="160" relative="1" as="geometry">
            <mxPoint x="320.0000000000001" y="180" as="sourcePoint" />
            <mxPoint x="360.0000000000001" y="180" as="targetPoint" />
          </mxGeometry>
        </mxCell>
        <mxCell id="GkLt6nn7DvjHkwB9jJwZ-9" value="" style="fontStyle=1;align=left;verticalAlign=top;childLayout=stackLayout;horizontal=1;horizontalStack=0;resizeParent=1;resizeParentMax=0;resizeLast=0;marginBottom=0;" vertex="1" parent="aUDsEq78Ny2xMxmlCQFK-10">
          <mxGeometry x="360" y="240" width="120" height="40" as="geometry" />
        </mxCell>
        <mxCell id="GkLt6nn7DvjHkwB9jJwZ-10" value="View Records" style="html=1;align=left;spacingLeft=4;verticalAlign=middle;strokeColor=none;fillColor=none;fontStyle=1" vertex="1" parent="GkLt6nn7DvjHkwB9jJwZ-9">
          <mxGeometry width="120" height="20" as="geometry" />
        </mxCell>
        <mxCell id="GkLt6nn7DvjHkwB9jJwZ-11" value="" style="shape=ellipse;" vertex="1" parent="GkLt6nn7DvjHkwB9jJwZ-10">
          <mxGeometry x="1" width="20" height="10" relative="1" as="geometry">
            <mxPoint x="-25" y="5" as="offset" />
          </mxGeometry>
        </mxCell>
        <mxCell id="GkLt6nn7DvjHkwB9jJwZ-12" value="" style="line;strokeWidth=1;fillColor=none;align=left;verticalAlign=middle;spacingTop=-1;spacingLeft=3;spacingRight=3;rotatable=0;labelPosition=right;points=[];portConstraint=eastwest;" vertex="1" parent="GkLt6nn7DvjHkwB9jJwZ-9">
          <mxGeometry y="20" width="120" height="8" as="geometry" />
        </mxCell>
        <mxCell id="GkLt6nn7DvjHkwB9jJwZ-13" value="(filtered,ordered,paged,summaries)" style="html=1;align=left;spacingLeft=0;verticalAlign=top;strokeColor=none;fillColor=none;fontSize=8;spacing=-2;" vertex="1" parent="GkLt6nn7DvjHkwB9jJwZ-9">
          <mxGeometry y="28" width="120" height="12" as="geometry" />
        </mxCell>
        <mxCell id="GkLt6nn7DvjHkwB9jJwZ-22" style="edgeStyle=orthogonalEdgeStyle;rounded=0;orthogonalLoop=1;jettySize=auto;html=1;entryX=0.5;entryY=1;entryDx=0;entryDy=0;endArrow=block;endFill=0;" edge="1" parent="aUDsEq78Ny2xMxmlCQFK-10" source="GkLt6nn7DvjHkwB9jJwZ-14" target="GkLt6nn7DvjHkwB9jJwZ-2">
          <mxGeometry relative="1" as="geometry" />
        </mxCell>
        <mxCell id="GkLt6nn7DvjHkwB9jJwZ-14" value="&amp;lt;&amp;lt;actor&amp;gt;&amp;gt;&lt;br&gt;&lt;b&gt;Operations&lt;br&gt;Admin&lt;br&gt;&lt;/b&gt;" style="text;html=1;align=center;verticalAlign=middle;dashed=0;fillColor=#ffffff;strokeColor=#000000;" vertex="1" parent="aUDsEq78Ny2xMxmlCQFK-10">
          <mxGeometry x="240" y="280" width="80" height="40" as="geometry" />
        </mxCell>
        <mxCell id="GkLt6nn7DvjHkwB9jJwZ-15" value="" style="fontStyle=1;align=left;verticalAlign=top;childLayout=stackLayout;horizontal=1;horizontalStack=0;resizeParent=1;resizeParentMax=0;resizeLast=0;marginBottom=0;" vertex="1" parent="aUDsEq78Ny2xMxmlCQFK-10">
          <mxGeometry x="360" y="320" width="120" height="40" as="geometry" />
        </mxCell>
        <mxCell id="GkLt6nn7DvjHkwB9jJwZ-16" value="View Record" style="html=1;align=left;spacingLeft=4;verticalAlign=middle;strokeColor=none;fillColor=none;fontStyle=1" vertex="1" parent="GkLt6nn7DvjHkwB9jJwZ-15">
          <mxGeometry width="120" height="20" as="geometry" />
        </mxCell>
        <mxCell id="GkLt6nn7DvjHkwB9jJwZ-17" value="" style="shape=ellipse;" vertex="1" parent="GkLt6nn7DvjHkwB9jJwZ-16">
          <mxGeometry x="1" width="20" height="10" relative="1" as="geometry">
            <mxPoint x="-25" y="5" as="offset" />
          </mxGeometry>
        </mxCell>
        <mxCell id="GkLt6nn7DvjHkwB9jJwZ-18" value="" style="line;strokeWidth=1;fillColor=none;align=left;verticalAlign=middle;spacingTop=-1;spacingLeft=3;spacingRight=3;rotatable=0;labelPosition=right;points=[];portConstraint=eastwest;" vertex="1" parent="GkLt6nn7DvjHkwB9jJwZ-15">
          <mxGeometry y="20" width="120" height="8" as="geometry" />
        </mxCell>
        <mxCell id="GkLt6nn7DvjHkwB9jJwZ-19" value="." style="html=1;align=left;spacingLeft=4;verticalAlign=top;strokeColor=none;fillColor=none;fontSize=8;spacing=-2;" vertex="1" parent="GkLt6nn7DvjHkwB9jJwZ-15">
          <mxGeometry y="28" width="120" height="12" as="geometry" />
        </mxCell>
        <mxCell id="GkLt6nn7DvjHkwB9jJwZ-20" value="" style="endArrow=open;endFill=1;endSize=12;html=1;strokeColor=#000000;fontSize=10;entryX=0;entryY=0.5;entryDx=0;entryDy=0;exitX=1;exitY=0.5;exitDx=0;exitDy=0;" edge="1" parent="aUDsEq78Ny2xMxmlCQFK-10" source="GkLt6nn7DvjHkwB9jJwZ-14">
          <mxGeometry width="160" relative="1" as="geometry">
            <mxPoint x="320.0000000000001" y="260" as="sourcePoint" />
            <mxPoint x="360.0000000000001" y="260" as="targetPoint" />
          </mxGeometry>
        </mxCell>
        <mxCell id="GkLt6nn7DvjHkwB9jJwZ-21" value="" style="endArrow=open;endFill=1;endSize=12;html=1;strokeColor=#000000;fontSize=10;entryX=0;entryY=1;entryDx=0;entryDy=0;exitX=1;exitY=0.5;exitDx=0;exitDy=0;" edge="1" parent="aUDsEq78Ny2xMxmlCQFK-10" source="GkLt6nn7DvjHkwB9jJwZ-14" target="GkLt6nn7DvjHkwB9jJwZ-16">
          <mxGeometry width="160" relative="1" as="geometry">
            <mxPoint x="330.0000000000001" y="300" as="sourcePoint" />
            <mxPoint x="370.0000000000001" y="300" as="targetPoint" />
          </mxGeometry>
        </mxCell>
        <mxCell id="fQ8Tb4TJHlXgaxiWL6We-0" value="Title/Diagram" parent="6zsalb_4Q6Wy_RO658KX-0" />
        <mxCell id="pR05Vp6-c_UAXGHB-9SX-1" value="&lt;font style=&quot;font-size: 12px&quot;&gt;Diagram: Base System Logical Module -&amp;nbsp;Functionality -&amp;nbsp;Error Record Management&lt;/font&gt;" style="text;strokeColor=none;fillColor=none;html=1;fontSize=24;fontStyle=2;verticalAlign=middle;align=left;shadow=0;glass=0;comic=0;opacity=30;fontColor=#808080;" parent="fQ8Tb4TJHlXgaxiWL6We-0" vertex="1">
          <mxGeometry x="120" y="420" width="520" height="20" as="geometry" />
        </mxCell>
        <mxCell id="FPPdZPXUPv9n0KayTUjE-1" value="To meet security and privacy obligations, &lt;br&gt;Error Messages must not record un-obfuscated System Configuration and/or User Confidential information (only system ID)." style="shape=note;whiteSpace=wrap;html=1;size=14;verticalAlign=top;align=left;spacingTop=-6;strokeWidth=1;fontSize=12;fontStyle=2;spacingRight=16;" parent="fQ8Tb4TJHlXgaxiWL6We-0" vertex="1">
          <mxGeometry x="520" y="200" width="160" height="120" as="geometry" />
        </mxCell>
        <mxCell id="kJFmuFiU3wEKo-ty_FbZ-0" value="About" style="" parent="6zsalb_4Q6Wy_RO658KX-0" />
        <UserObject label="" tooltip="ABOUT&#xa;&#xa;Functionality &#xa;within the Base Logical Module&#xa;for handling common Diagnostic Tracing.&#xa;Diagnostic tracing is not saved to the Core relational database -- it usually goes to a rolling text log file, and sometimes is saved asynchronously to an cloud service.&#xa;&#xa;System specific Diagnostic log files should be local to the system (for both latency and access reasons) -- then exported to a central location for security and/or enterprise monitoring reasons." id="XdkydOQAid-UxDZSyXBN-0">
          <mxCell style="shape=image;html=1;verticalAlign=top;verticalLabelPosition=bottom;labelBackgroundColor=#ffffff;imageAspect=0;aspect=fixed;image=https://cdn1.iconfinder.com/data/icons/hawcons/32/699014-icon-28-information-128.png;shadow=0;dashed=0;fontFamily=Helvetica;fontSize=12;fontColor=#000000;align=center;strokeColor=#000000;fillColor=#505050;dashPattern=1 1;" parent="kJFmuFiU3wEKo-ty_FbZ-0" vertex="1">
            <mxGeometry x="660" y="380" width="20" height="20" as="geometry" />
          </mxCell>
        </UserObject>
      </root>
    </mxGraphModel>
  </diagram>
</mxfile>
